<svg width="100" height="100" viewBox="0 0 100 100" fill="none" xmlns="http://www.w3.org/2000/svg">
<rect width="100" height="100" fill="#151515"/>
<g filter="url(#filter0_d_783_11)">
<path d="M34.1429 57L29.6629 43H34.5229L38.1429 54.82H35.7029L39.5429 43H43.8829L47.4629 54.82H45.1229L48.9029 43H53.3829L48.9029 57H43.8429L40.9229 47.32H42.2829L39.2029 57H34.1429Z" fill="white"/>
<path d="M62.064 57.32C60.9307 57.32 59.8773 57.14 58.904 56.78C57.944 56.42 57.1107 55.9133 56.404 55.26C55.6973 54.5933 55.144 53.8133 54.744 52.92C54.3573 52.0267 54.164 51.0533 54.164 50C54.164 48.9333 54.3573 47.96 54.744 47.08C55.144 46.1867 55.6973 45.4133 56.404 44.76C57.1107 44.0933 57.944 43.58 58.904 43.22C59.8773 42.86 60.9307 42.68 62.064 42.68C63.2107 42.68 64.264 42.86 65.224 43.22C66.184 43.58 67.0173 44.0933 67.724 44.76C68.4307 45.4133 68.9773 46.1867 69.364 47.08C69.764 47.96 69.964 48.9333 69.964 50C69.964 51.0533 69.764 52.0267 69.364 52.92C68.9773 53.8133 68.4307 54.5933 67.724 55.26C67.0173 55.9133 66.184 56.42 65.224 56.78C64.264 57.14 63.2107 57.32 62.064 57.32ZM62.064 53.5C62.504 53.5 62.9107 53.42 63.284 53.26C63.6707 53.1 64.004 52.8733 64.284 52.58C64.5773 52.2733 64.804 51.9067 64.964 51.48C65.124 51.04 65.204 50.5467 65.204 50C65.204 49.4533 65.124 48.9667 64.964 48.54C64.804 48.1 64.5773 47.7333 64.284 47.44C64.004 47.1333 63.6707 46.9 63.284 46.74C62.9107 46.58 62.504 46.5 62.064 46.5C61.624 46.5 61.2107 46.58 60.824 46.74C60.4507 46.9 60.1173 47.1333 59.824 47.44C59.544 47.7333 59.324 48.1 59.164 48.54C59.004 48.9667 58.924 49.4533 58.924 50C58.924 50.5467 59.004 51.04 59.164 51.48C59.324 51.9067 59.544 52.2733 59.824 52.58C60.1173 52.8733 60.4507 53.1 60.824 53.26C61.2107 53.42 61.624 53.5 62.064 53.5Z" fill="#FFC700"/>
</g>
<defs>
<filter id="filter0_d_783_11" x="14.6641" y="39.6799" width="60.3008" height="34.6401" filterUnits="userSpaceOnUse" color-interpolation-filters="sRGB">
<feFlood flood-opacity="0" result="BackgroundImageFix"/>
<feColorMatrix in="SourceAlpha" type="matrix" values="0 0 0 0 0 0 0 0 0 0 0 0 0 0 0 0 0 0 127 0" result="hardAlpha"/>
<feOffset dx="-5" dy="7"/>
<feGaussianBlur stdDeviation="5"/>
<feComposite in2="hardAlpha" operator="out"/>
<feColorMatrix type="matrix" values="0 0 0 0 0.0784314 0 0 0 0 0.0980392 0 0 0 0 0.121569 0 0 0 1 0"/>
<feBlend mode="normal" in2="BackgroundImageFix" result="effect1_dropShadow_783_11"/>
<feBlend mode="normal" in="SourceGraphic" in2="effect1_dropShadow_783_11" result="shape"/>
</filter>
</defs>
</svg>
